<svg xmlns="http://www.w3.org/2000/svg" viewBox="0 0 1800 1150" width="100%" height="100%" text-rendering="geometricPrecision" shape-rendering="geometricPrecision" style="background: radial-gradient(circle at 50% 50%, #06080e 0%, #010203 100%); font-family: 'Kumbh Sans', 'Inter', -apple-system, sans-serif;">
  <defs>
    <!-- Fonts & Interactions styling -->
    <style>
      @import url('https://fonts.googleapis.com/css2?family=Inter:wght@400;500;600;700;800&amp;family=Kumbh+Sans:wght@700;800;900&amp;display=swap');
      
      .title { font-family: 'Kumbh Sans', sans-serif; font-weight: 900; fill: #ffffff; letter-spacing: -0.02em; }
      .subtitle { font-family: 'Inter', sans-serif; font-weight: 500; fill: #cbd5e1; font-size: 16px; }
      .pill-text { font-family: 'Inter', sans-serif; font-weight: 800; font-size: 12px; fill: #ffffff; letter-spacing: 0.05em; }
      
      /* Card Details */
      .card-num { font-family: 'Inter', sans-serif; font-weight: 800; font-size: 13px; fill: #38bdf8; letter-spacing: 0.1em; }
      .card-title { font-family: 'Kumbh Sans', sans-serif; font-weight: 800; font-size: 22px; fill: #ffffff; }
      .card-desc { font-family: 'Inter', sans-serif; font-weight: 500; font-size: 13px; fill: #94a3b8; }
      .bullet-title { font-family: 'Inter', sans-serif; font-weight: 700; font-size: 14px; fill: #ffffff; }
      .bullet-text { font-family: 'Inter', sans-serif; font-weight: 500; font-size: 12px; fill: #cbd5e1; }
      .tech-tag { font-family: monospace; font-size: 11px; font-weight: 700; fill: #38bdf8; }
      
      /* Interactivity */
      .stack-card {
        transition: transform 0.3s cubic-bezier(0.4, 0, 0.2, 1), filter 0.3s ease;
        cursor: pointer;
      }
      .stack-card:hover {
        transform: translateY(-8px) scale(1.01);
        filter: brightness(1.15) drop-shadow(0 15px 30px rgba(56, 189, 248, 0.2));
      }
      
      /* Flows */
      @keyframes dash {
        to { stroke-dashoffset: -40; }
      }
      .flow-path {
        stroke-dasharray: 6, 8;
        animation: dash 3s linear infinite;
      }
    </style>

    <!-- Gradients -->
    <linearGradient id="card-bg" x1="0%" y1="0%" x2="0%" y2="100%">
      <stop offset="0%" stop-color="#0f172a" stop-opacity="0.9" />
      <stop offset="100%" stop-color="#05070c" stop-opacity="0.98" />
    </linearGradient>

    <!-- Glowing accents -->
    <linearGradient id="cyan-glow" x1="0%" y1="0%" x2="100%" y2="0%">
      <stop offset="0%" stop-color="#38bdf8" />
      <stop offset="100%" stop-color="#0369a1" />
    </linearGradient>
    <linearGradient id="purple-glow" x1="0%" y1="0%" x2="100%" y2="0%">
      <stop offset="0%" stop-color="#a78bfa" />
      <stop offset="100%" stop-color="#6d28d9" />
    </linearGradient>
    <linearGradient id="emerald-glow" x1="0%" y1="0%" x2="100%" y2="0%">
      <stop offset="0%" stop-color="#34d399" />
      <stop offset="100%" stop-color="#047857" />
    </linearGradient>
    <linearGradient id="rose-glow" x1="0%" y1="0%" x2="100%" y2="0%">
      <stop offset="0%" stop-color="#fb7185" />
      <stop offset="100%" stop-color="#be123c" />
    </linearGradient>
    
    <!-- Drop shadow filters -->
    <filter id="shadow" x="-10%" y="-10%" width="120%" height="120%">
      <feDropShadow dx="0" dy="10" stdDeviation="10" flood-color="#000000" flood-opacity="0.6" />
    </filter>
  </defs>

  <!-- Hexagonal Tech Background Mesh -->
  <g opacity="0.04" stroke="#38bdf8" stroke-width="1.5" fill="none">
    <path d="M 100,50 L 200,50 L 250,136 L 200,222 L 100,222 L 50,136 Z" />
    <path d="M 250,136 L 350,136 L 400,222 L 350,308 L 250,308 L 200,222 Z" />
    <path d="M 100,222 L 200,222 L 250,308 L 200,394 L 100,394 L 50,308 Z" />
    <path d="M 400,222 L 500,222 L 550,308 L 500,394 L 400,394 L 350,308 Z" />
    <path d="M 1500,50 L 1600,50 L 1650,136 L 1600,222 L 1500,222 L 1450,136 Z" />
    <path d="M 1350,136 L 1450,136 L 1500,222 L 1450,308 L 1350,308 L 1300,222 Z" />
  </g>

  <!-- ================= TOP TITLE BOARD ================= -->
  <g transform="translate(80, 50)">
    <rect width="6" height="60" rx="3" fill="#38bdf8" />
    <text x="20" y="28" font-size="32" class="title">AI SMART STACK 2.0</text>
    <text x="20" y="52" class="subtitle">Cognitive Pipeline Architecture · VidiFlow Enterprise Engine Modules</text>

    <!-- Top Stats -->
    <g transform="translate(1100, 10)">
      <rect width="180" height="32" rx="16" fill="#0b0f19" stroke="#38bdf8" stroke-opacity="0.4" stroke-width="1.5" />
      <circle cx="20" cy="16" r="4" fill="#38bdf8" />
      <text x="35" y="20" class="pill-text" fill="#38bdf8">8 DECK CARDS</text>

      <rect width="220" height="32" rx="16" x="200" y="0" fill="#0b0f19" stroke="#10b981" stroke-opacity="0.4" stroke-width="1.5" />
      <circle cx="220" cy="16" r="4" fill="#10b981" />
      <text x="235" y="20" class="pill-text" fill="#10b981">ENTERPRISE VERIFIED</text>
    </g>
  </g>

  <!-- ================= PIPELINE FLOW LINES ================= -->
  <path d="M 450,290 L 530,290" fill="none" stroke="#38bdf8" stroke-opacity="0.5" stroke-width="3" class="flow-path" />
  <path d="M 450,750 L 530,750" fill="none" stroke="#38bdf8" stroke-opacity="0.5" stroke-width="3" class="flow-path" />
  <path d="M 900,290 L 980,290" fill="none" stroke="#a78bfa" stroke-opacity="0.5" stroke-width="3" class="flow-path" />
  <path d="M 900,750 L 980,750" fill="none" stroke="#a78bfa" stroke-opacity="0.5" stroke-width="3" class="flow-path" />
  <path d="M 1350,290 L 1430,290" fill="none" stroke="#34d399" stroke-opacity="0.5" stroke-width="3" class="flow-path" />
  <path d="M 1350,750 L 1430,750" fill="none" stroke="#34d399" stroke-opacity="0.5" stroke-width="3" class="flow-path" />


  <!-- ================= GRID OF 8 SUB-STACK CARDS ================= -->

  <!-- CARD 1: SS-01 FOUNDATION -->
  <g class="stack-card" filter="url(#shadow)" transform="translate(80, 160)">
    <rect width="370" height="400" rx="18" fill="url(#card-bg)" stroke="#1e293b" stroke-width="2" />
    <rect width="370" height="6" rx="3" fill="url(#cyan-glow)" />
    
    <g transform="translate(25, 30)">
      <text class="card-num">SUB-STACK 01</text>
      <text y="28" class="card-title">Foundation</text>
      <text y="48" class="card-desc">Objectives, Core Tech &amp; private LLMs</text>
    </g>

    <g transform="translate(25, 110)">
      <circle cx="10" cy="10" r="3" fill="#38bdf8" />
      <text x="25" y="14" class="bullet-title">Private LLM Infrastructure</text>
      <text x="25" y="30" class="bullet-text">Llama 3.2 3B/11B local inference</text>
      
      <circle cx="10" cy="55" r="3" fill="#38bdf8" />
      <text x="25" y="59" class="bullet-title">Sovereign Data Storage</text>
      <text x="25" y="75" class="bullet-text">Air-gapped local database backups</text>

      <circle cx="10" cy="100" r="3" fill="#38bdf8" />
      <text x="25" y="104" class="bullet-title">GPU Cluster Setup</text>
      <text x="25" y="120" class="bullet-text">PCIe Gen 5 RTX acceleration racks</text>

      <circle cx="10" cy="145" r="3" fill="#38bdf8" />
      <text x="25" y="149" class="bullet-title">System Orchestrator Core</text>
      <text x="25" y="165" class="bullet-text">Rust/Go microservices heartbeat</text>
    </g>

    <g transform="translate(25, 355)">
      <rect width="110" height="20" rx="4" fill="#0f172a" stroke="#1e293b" stroke-width="1.5" />
      <text x="10" y="14" class="tech-tag">CUDA 12.4</text>
      
      <rect width="100" height="20" rx="4" x="120" y="0" fill="#0f172a" stroke="#1e293b" stroke-width="1.5" />
      <text x="130" y="14" class="tech-tag">PORT 1234</text>
    </g>
  </g>

  <!-- CARD 2: SS-02 ETL PIPELINE -->
  <g class="stack-card" filter="url(#shadow)" transform="translate(530, 160)">
    <rect width="370" height="400" rx="18" fill="url(#card-bg)" stroke="#1e293b" stroke-width="2" />
    <rect width="370" height="6" rx="3" fill="url(#cyan-glow)" />

    <g transform="translate(25, 30)">
      <text class="card-num">SUB-STACK 02</text>
      <text y="28" class="card-title">ETL Ingestion</text>
      <text y="48" class="card-desc">Video raw ingest, transcription &amp; indexing</text>
    </g>

    <g transform="translate(25, 110)">
      <circle cx="10" cy="10" r="3" fill="#38bdf8" />
      <text x="25" y="14" class="bullet-title">Whisper Audio Extraction</text>
      <text x="25" y="30" class="bullet-text">whisper-large-v3 timestamp alignment</text>
      
      <circle cx="10" cy="55" r="3" fill="#38bdf8" />
      <text x="25" y="59" class="bullet-title">Silo Ingestion Pipelines</text>
      <text x="25" y="75" class="bullet-text">Automated scraping and file watches</text>

      <circle cx="10" cy="100" r="3" fill="#38bdf8" />
      <text x="25" y="104" class="bullet-title">Metadata Scrubbing</text>
      <text x="25" y="120" class="bullet-text">EXIF, header analysis &amp; codec checks</text>

      <circle cx="10" cy="145" r="3" fill="#38bdf8" />
      <text x="25" y="149" class="bullet-title">Kafka Ingestion Stream</text>
      <text x="25" y="165" class="bullet-text">Real-time queuing and event dispatch</text>
    </g>

    <g transform="translate(25, 355)">
      <rect width="110" height="20" rx="4" fill="#0f172a" stroke="#1e293b" stroke-width="1.5" />
      <text x="10" y="14" class="tech-tag">FFMPEG-CUDA</text>
      
      <rect width="100" height="20" rx="4" x="120" y="0" fill="#0f172a" stroke="#1e293b" stroke-width="1.5" />
      <text x="130" y="14" class="tech-tag">KAFKA: 9092</text>
    </g>
  </g>

  <!-- CARD 3: SS-03 DOCUMENT & OCR -->
  <g class="stack-card" filter="url(#shadow)" transform="translate(980, 160)">
    <rect width="370" height="400" rx="18" fill="url(#card-bg)" stroke="#1e293b" stroke-width="2" />
    <rect width="370" height="6" rx="3" fill="url(#purple-glow)" />

    <g transform="translate(25, 30)">
      <text class="card-num" fill="#a78bfa">SUB-STACK 03</text>
      <text y="28" class="card-title">Doc/OCR Processing</text>
      <text y="48" class="card-desc">PDF parsing, document structure analysis</text>
    </g>

    <g transform="translate(25, 110)">
      <circle cx="10" cy="10" r="3" fill="#a78bfa" />
      <text x="25" y="14" class="bullet-title">Structured PDF Extraction</text>
      <text x="25" y="30" class="bullet-text">LayoutLM text boundary detection</text>
      
      <circle cx="10" cy="55" r="3" fill="#a78bfa" />
      <text x="25" y="59" class="bullet-title">Tesseract OCR Pipeline</text>
      <text x="25" y="75" class="bullet-text">Cleans visual text in slide packages</text>

      <circle cx="10" cy="100" r="3" fill="#a78bfa" />
      <text x="25" y="104" class="bullet-title">Faceted Table Parsing</text>
      <text x="25" y="120" class="bullet-text">Direct extraction of tabular financial facts</text>

      <circle cx="10" cy="145" r="3" fill="#a78bfa" />
      <text x="25" y="149" class="bullet-title">Tokenization &amp; Chunking</text>
      <text x="25" y="165" class="bullet-text">Context-preserving semantic slicing</text>
    </g>

    <g transform="translate(25, 355)">
      <rect width="110" height="20" rx="4" fill="#0f172a" stroke="#1e293b" stroke-width="1.5" />
      <text x="10" y="14" class="tech-tag" fill="#a78bfa">TESSERACT-5</text>
      
      <rect width="100" height="20" rx="4" x="120" y="0" fill="#0f172a" stroke="#1e293b" stroke-width="1.5" />
      <text x="130" y="14" class="tech-tag" fill="#a78bfa">PY-PDFIUM</text>
    </g>
  </g>

  <!-- CARD 4: SS-04 VISUAL INTELLIGENCE -->
  <g class="stack-card" filter="url(#shadow)" transform="translate(1430, 160)">
    <rect width="370" height="400" rx="18" fill="url(#card-bg)" stroke="#1e293b" stroke-width="2" />
    <rect width="370" height="6" rx="3" fill="url(#purple-glow)" />

    <g transform="translate(25, 30)">
      <text class="card-num" fill="#a78bfa">SUB-STACK 04</text>
      <text y="28" class="card-title">Visual Intelligence</text>
      <text y="48" class="card-desc">Scene detection, clip segmenting &amp; embeddings</text>
    </g>

    <g transform="translate(25, 110)">
      <circle cx="10" cy="10" r="3" fill="#a78bfa" />
      <text x="25" y="14" class="bullet-title">Qwen3-VL Vision Analyzer</text>
      <text x="25" y="30" class="bullet-text">Identifies products, locations, and actions</text>
      
      <circle cx="10" cy="55" r="3" fill="#a78bfa" />
      <text x="25" y="59" class="bullet-title">Video Frame Feature Vector</text>
      <text x="25" y="75" class="bullet-text">Generates visual-semantic CLIP coordinates</text>

      <circle cx="10" cy="100" r="3" fill="#a78bfa" />
      <text x="25" y="104" class="bullet-title">Dynamic Scene Segmentation</text>
      <text x="25" y="120" class="bullet-text">Detects shot boundaries and transition cuts</text>

      <circle cx="10" cy="145" r="3" fill="#a78bfa" />
      <text x="25" y="149" class="bullet-title">12Labs Video Engine</text>
      <text x="25" y="165" class="bullet-text">External semantic search fallback</text>
    </g>

    <g transform="translate(25, 355)">
      <rect width="110" height="20" rx="4" fill="#0f172a" stroke="#1e293b" stroke-width="1.5" />
      <text x="10" y="14" class="tech-tag" fill="#a78bfa">CLIP ViT-L</text>
      
      <rect width="100" height="20" rx="4" x="120" y="0" fill="#0f172a" stroke="#1e293b" stroke-width="1.5" />
      <text x="130" y="14" class="tech-tag" fill="#a78bfa">12LABS API</text>
    </g>
  </g>


  <!-- ================= ROW 2 ================= -->

  <!-- CARD 5: SS-05 VECTORS & ENTITY STORE -->
  <g class="stack-card" filter="url(#shadow)" transform="translate(80, 620)">
    <rect width="370" height="400" rx="18" fill="url(#card-bg)" stroke="#1e293b" stroke-width="2" />
    <rect width="370" height="6" rx="3" fill="url(#emerald-glow)" />

    <g transform="translate(25, 30)">
      <text class="card-num" fill="#34d399">SUB-STACK 05</text>
      <text y="28" class="card-title">Vector &amp; Entity Store</text>
      <text y="48" class="card-desc">Vidi Ai and Neo4j real-time indexers</text>
    </g>

    <g transform="translate(25, 110)">
      <circle cx="10" cy="10" r="3" fill="#34d399" />
      <text x="25" y="14" class="bullet-title">Vidi Ai Search</text>
      <text x="25" y="30" class="bullet-text">Coordinates millions of visual vectors</text>
      
      <circle cx="10" cy="55" r="3" fill="#34d399" />
      <text x="25" y="59" class="bullet-title">Neo4j Knowledge Graph</text>
      <text x="25" y="75" class="bullet-text">Maintains entity-to-concept linkages</text>

      <circle cx="10" cy="100" r="3" fill="#34d399" />
      <text x="25" y="104" class="bullet-title">Geospatial Tag Indexer</text>
      <text x="25" y="120" class="bullet-text">PostGIS/Vidi Ai location-based ranking</text>

      <circle cx="10" cy="145" r="3" fill="#34d399" />
      <text x="25" y="149" class="bullet-title">Cross-Reference Sync</text>
      <text x="25" y="165" class="bullet-text">Edge micro-updates feed to core DB</text>
    </g>

    <g transform="translate(25, 355)">
      <rect width="110" height="20" rx="4" fill="#0f172a" stroke="#1e293b" stroke-width="1.5" />
      <text x="10" y="14" class="tech-tag" fill="#34d399">VIDI AI: 8089</text>
      
      <rect width="100" height="20" rx="4" x="120" y="0" fill="#0f172a" stroke="#1e293b" stroke-width="1.5" />
      <text x="130" y="14" class="tech-tag" fill="#34d399">NEO4J: 7474</text>
    </g>
  </g>

  <!-- CARD 6: SS-06 SMARTGEN COGNITION -->
  <g class="stack-card" filter="url(#shadow)" transform="translate(530, 620)">
    <rect width="370" height="400" rx="18" fill="url(#card-bg)" stroke="#1e293b" stroke-width="2" />
    <rect width="370" height="6" rx="3" fill="url(#emerald-glow)" />

    <g transform="translate(25, 30)">
      <text class="card-num" fill="#34d399">SUB-STACK 06</text>
      <text y="28" class="card-title">SmartGen Engine</text>
      <text y="48" class="card-desc">Automated writing, script generation &amp; outline</text>
    </g>

    <g transform="translate(25, 110)">
      <circle cx="10" cy="10" r="3" fill="#34d399" />
      <text x="25" y="14" class="bullet-title">Copilot Writing Assistant</text>
      <text x="25" y="30" class="bullet-text">Generates structured presentation decks</text>
      
      <circle cx="10" cy="55" r="3" fill="#34d399" />
      <text x="25" y="59" class="bullet-title">AI Video Script Creator</text>
      <text x="25" y="75" class="bullet-text">Writes spoken text matched to visual frames</text>

      <circle cx="10" cy="100" r="3" fill="#34d399" />
      <text x="25" y="104" class="bullet-title">RAG Prompt Compiler</text>
      <text x="25" y="120" class="bullet-text">Enriches context from Vidi Ai &amp; Neo4j nodes</text>

      <circle cx="10" cy="145" r="3" fill="#34d399" />
      <text x="25" y="149" class="bullet-title">Translation &amp; Localization</text>
      <text x="25" y="165" class="bullet-text">Adapts tone to local region profiles</text>
    </g>

    <g transform="translate(25, 355)">
      <rect width="110" height="20" rx="4" fill="#0f172a" stroke="#1e293b" stroke-width="1.5" />
      <text x="10" y="14" class="tech-tag" fill="#34d399">QWEN-2.5-VL</text>
      
      <rect width="100" height="20" rx="4" x="120" y="0" fill="#0f172a" stroke="#1e293b" stroke-width="1.5" />
      <text x="130" y="14" class="tech-tag" fill="#34d399">GEMINI 1.5</text>
    </g>
  </g>

  <!-- CARD 7: SS-07 AUTONOMOUS AGENTS -->
  <g class="stack-card" filter="url(#shadow)" transform="translate(980, 620)">
    <rect width="370" height="400" rx="18" fill="url(#card-bg)" stroke="#1e293b" stroke-width="2" />
    <rect width="370" height="6" rx="3" fill="url(#rose-glow)" />

    <g transform="translate(25, 30)">
      <text class="card-num" fill="#fb7185">SUB-STACK 07</text>
      <text y="28" class="card-title">Autonomous Agents</text>
      <text y="48" class="card-desc">CrewAI orchestration &amp; social scheduling</text>
    </g>

    <g transform="translate(25, 110)">
      <circle cx="10" cy="10" r="3" fill="#fb7185" />
      <text x="25" y="14" class="bullet-title">CrewAI Collaborative Teams</text>
      <text x="25" y="30" class="bullet-text">Sequential planning with shared state</text>
      
      <circle cx="10" cy="55" r="3" fill="#fb7185" />
      <text x="25" y="59" class="bullet-title">LangGraph Agent Workflows</text>
      <text x="25" y="75" class="bullet-text">Cyclic task graphs for detailed research</text>

      <circle cx="10" cy="100" r="3" fill="#fb7185" />
      <text x="25" y="104" class="bullet-title">Auto-Publisher Swarm</text>
      <text x="25" y="120" class="bullet-text">Pushes campaign content to social channels</text>

      <circle cx="10" cy="145" r="3" fill="#fb7185" />
      <text x="25" y="149" class="bullet-title">Self-Correcting Execution</text>
      <text x="25" y="165" class="bullet-text">Agents loop back if outputs fail validation</text>
    </g>

    <g transform="translate(25, 355)">
      <rect width="110" height="20" rx="4" fill="#0f172a" stroke="#1e293b" stroke-width="1.5" />
      <text x="10" y="14" class="tech-tag" fill="#fb7185">CREWAI V0.80</text>
      
      <rect width="100" height="20" rx="4" x="120" y="0" fill="#0f172a" stroke="#1e293b" stroke-width="1.5" />
      <text x="130" y="14" class="tech-tag" fill="#fb7185">LANGGRAPH</text>
    </g>
  </g>

  <!-- CARD 8: SS-08 HUMAN IN THE LOOP -->
  <g class="stack-card" filter="url(#shadow)" transform="translate(1430, 620)">
    <rect width="370" height="400" rx="18" fill="url(#card-bg)" stroke="#1e293b" stroke-width="2" />
    <rect width="370" height="6" rx="3" fill="url(#rose-glow)" />

    <g transform="translate(25, 30)">
      <text class="card-num" fill="#fb7185">SUB-STACK 08</text>
      <text y="28" class="card-title">HITL Verification</text>
      <text y="48" class="card-desc">Campaign review &amp; human oversight gate</text>
    </g>

    <g transform="translate(25, 110)">
      <circle cx="10" cy="10" r="3" fill="#fb7185" />
      <text x="25" y="14" class="bullet-title">Admin Moderation Deck</text>
      <text x="25" y="30" class="bullet-text">Interface to approve generated scripts</text>
      
      <circle cx="10" cy="55" r="3" fill="#fb7185" />
      <text x="25" y="59" class="bullet-title">Directus Action Center</text>
      <text x="25" y="75" class="bullet-text">One-click publish control widgets</text>

      <circle cx="10" cy="100" r="3" fill="#fb7185" />
      <text x="25" y="104" class="bullet-title">Dynamic Output Modifiers</text>
      <text x="25" y="120" class="bullet-text">Edit textual cards and variables live</text>

      <circle cx="10" cy="145" r="3" fill="#fb7185" />
      <text x="25" y="149" class="bullet-title">Human Correction Indexing</text>
      <text x="25" y="165" class="bullet-text">Manual edits train future Agent prompts</text>
    </g>

    <g transform="translate(25, 355)">
      <rect width="110" height="20" rx="4" fill="#0f172a" stroke="#1e293b" stroke-width="1.5" />
      <text x="10" y="14" class="tech-tag" fill="#fb7185">DIRECTUS: 8055</text>
      
      <rect width="100" height="20" rx="4" x="120" y="0" fill="#0f172a" stroke="#1e293b" stroke-width="1.5" />
      <text x="130" y="14" class="tech-tag" fill="#fb7185">REDUX STATES</text>
    </g>
  </g>


  <!-- ================= LEGEND / SYSTEM DATA BAR ================= -->
  <g transform="translate(80, 1070)">
    <rect width="1640" height="36" rx="8" fill="#0b0f19" stroke="#1e293b" stroke-width="1.5" />
    
    <g transform="translate(20, 10)">
      <circle cx="10" cy="8" r="4" fill="#38bdf8" />
      <text x="22" y="12" font-family="Inter" font-weight="600" font-size="12" fill="#cbd5e1">Infrastructure &amp; ETL</text>
      
      <circle cx="180" cy="8" r="4" fill="#a78bfa" />
      <text x="192" y="12" font-family="Inter" font-weight="600" font-size="12" fill="#cbd5e1">OCR &amp; Visual Intelligence</text>
      
      <circle cx="380" cy="8" r="4" fill="#34d399" />
      <text x="392" y="12" font-family="Inter" font-weight="600" font-size="12" fill="#cbd5e1">Knowledge Vector Engines</text>

      <circle cx="580" cy="8" r="4" fill="#fb7185" />
      <text x="592" y="12" font-family="Inter" font-weight="600" font-size="12" fill="#cbd5e1">Autonomous Agents &amp; Review</text>
    </g>

    <text x="1620" y="22" font-family="Inter" font-size="12" fill="#64748b" text-anchor="end">AI Smart Stack Master Plan v2.0.1 · Powered by Private local GPU clusters &amp; enterprise cloud databases · Infinite Vector SVG format</text>
  </g>

</svg>
