<svg xmlns="http://www.w3.org/2000/svg" viewBox="0 0 1600 1000" width="100%" height="100%" text-rendering="geometricPrecision" shape-rendering="geometricPrecision" style="background: radial-gradient(circle at 50% 50%, #080911 0%, #030407 100%); font-family: 'Lato', 'Inter', -apple-system, sans-serif;">
  <defs>
    <!-- Fonts -->
    <style>
      @import url('https://fonts.googleapis.com/css2?family=Inter:wght@400;500;600;700&amp;family=Kumbh+Sans:wght@700;800;900&amp;family=Lato:wght@400;700&amp;display=swap');
      
      .title { font-family: 'Kumbh Sans', sans-serif; font-weight: 900; fill: #ffffff; }
      .vidi-brand { font-family: 'Kumbh Sans', sans-serif; font-weight: 800; }
      .subtitle { font-family: 'Inter', sans-serif; font-weight: 500; fill: #cbd5e1; font-size: 16px; }
      .pill-text { font-family: 'Inter', sans-serif; font-weight: 700; font-size: 12px; fill: #ffffff; }
      .node-title { font-family: 'Lato', sans-serif; font-weight: 700; font-size: 17px; fill: #ffffff; }
      .node-text { font-family: 'Inter', sans-serif; font-weight: 500; font-size: 12.5px; fill: #cbd5e1; }
      .node-code { font-family: monospace; font-size: 12px; font-weight: 700; fill: #38bdf8; }
      .group-title { font-family: 'Kumbh Sans', sans-serif; font-weight: 800; font-size: 18px; letter-spacing: 0.05em; text-transform: uppercase; }
      
      /* Hover interactions */
      .interactive-node {
        transition: transform 0.3s ease, filter 0.3s ease;
        cursor: pointer;
      }
      .interactive-node:hover {
        transform: translateY(-5px);
        filter: brightness(1.2) drop-shadow(0 10px 20px rgba(56, 189, 248, 0.3));
      }
      .interactive-node-purple:hover {
        transform: translateY(-5px);
        filter: brightness(1.2) drop-shadow(0 10px 20px rgba(168, 85, 247, 0.3));
      }
      .interactive-node-emerald:hover {
        transform: translateY(-5px);
        filter: brightness(1.2) drop-shadow(0 10px 20px rgba(16, 185, 129, 0.3));
      }
      .interactive-node-yellow:hover {
        transform: translateY(-5px);
        filter: brightness(1.2) drop-shadow(0 10px 20px rgba(251, 191, 36, 0.3));
      }
      
      /* Animation */
      @keyframes pulse {
        0% { stroke-dashoffset: 0; }
        100% { stroke-dashoffset: -40; }
      }
      .flow-line {
        stroke-dasharray: 8, 12;
        animation: pulse 4s linear infinite;
      }
    </style>

    <!-- Gradients -->
    <linearGradient id="grid-glow" x1="0%" y1="0%" x2="100%" y2="100%">
      <stop offset="0%" stop-color="#0c0e17" />
      <stop offset="50%" stop-color="#14122d" />
      <stop offset="100%" stop-color="#0c0e17" />
    </linearGradient>

    <!-- Node Gradients -->
    <linearGradient id="grad-blue" x1="0%" y1="0%" x2="0%" y2="100%">
      <stop offset="0%" stop-color="#111827" stop-opacity="0.95" />
      <stop offset="100%" stop-color="#030712" stop-opacity="0.95" />
    </linearGradient>
    
    <!-- Accent Gradients -->
    <linearGradient id="accent-blue" x1="0%" y1="0%" x2="100%" y2="0%">
      <stop offset="0%" stop-color="#38bdf8" />
      <stop offset="100%" stop-color="#0284c7" />
    </linearGradient>
    <linearGradient id="accent-purple" x1="0%" y1="0%" x2="100%" y2="0%">
      <stop offset="0%" stop-color="#c084fc" />
      <stop offset="100%" stop-color="#8b5cf6" />
    </linearGradient>
    <linearGradient id="accent-emerald" x1="0%" y1="0%" x2="100%" y2="0%">
      <stop offset="0%" stop-color="#34d399" />
      <stop offset="100%" stop-color="#059669" />
    </linearGradient>
    <linearGradient id="accent-orange" x1="0%" y1="0%" x2="100%" y2="0%">
      <stop offset="0%" stop-color="#fb923c" />
      <stop offset="100%" stop-color="#ea580c" />
    </linearGradient>
    <linearGradient id="accent-yellow" x1="0%" y1="0%" x2="100%" y2="0%">
      <stop offset="0%" stop-color="#fbbf24" />
      <stop offset="100%" stop-color="#d97706" />
    </linearGradient>

    <!-- Drop Shadows / Glows -->
    <filter id="glow-cyan" x="-20%" y="-20%" width="140%" height="140%">
      <feGaussianBlur stdDeviation="8" result="blur" />
      <feComposite in="SourceGraphic" in2="blur" operator="over" />
    </filter>
    <filter id="glow-purple" x="-20%" y="-20%" width="140%" height="140%">
      <feGaussianBlur stdDeviation="8" result="blur" />
      <feComposite in="SourceGraphic" in2="blur" operator="over" />
    </filter>
    <filter id="glow-emerald" x="-20%" y="-20%" width="140%" height="140%">
      <feGaussianBlur stdDeviation="8" result="blur" />
      <feComposite in="SourceGraphic" in2="blur" operator="over" />
    </filter>
  </defs>

  <!-- Grid Pattern Background -->
  <rect width="1600" height="1000" fill="url(#grid-glow)" />
  <g opacity="0.08">
    <path d="M 0,50 L 1600,50 M 0,100 L 1600,100 M 0,150 L 1600,150 M 0,200 L 1600,200 M 0,250 L 1600,250 M 0,300 L 1600,300 M 0,350 L 1600,350 M 0,400 L 1600,400 M 0,450 L 1600,450 M 0,500 L 1600,500 M 0,550 L 1600,550 M 0,600 L 1600,600 M 0,650 L 1600,650 M 0,700 L 1600,700 M 0,750 L 1600,750 M 0,800 L 1600,800 M 0,850 L 1600,850 M 0,900 L 1600,900 M 0,950 L 1600,950" stroke="#38bdf8" stroke-width="1" />
    <path d="M 50,0 L 50,1000 M 100,0 L 100,1000 M 150,0 L 150,1000 M 200,0 L 200,1000 M 250,0 L 250,1000 M 300,0 L 300,1000 M 350,0 L 350,1000 M 400,0 L 400,1000 M 450,0 L 450,1000 M 50,0 L 500,1000 M 550,0 L 550,1000 M 600,0 L 600,1000 M 650,0 L 650,1000 M 700,0 L 700,1000 M 750,0 L 750,1000 M 800,0 L 800,1000 M 850,0 L 850,1000 M 900,0 L 900,1000 M 950,0 L 950,1000 M 1000,0 L 1000,1000 M 1050,0 L 1050,1000 M 1100,0 L 1100,1000 M 1150,0 L 1150,1000 M 1200,0 L 1200,1000 M 1250,0 L 1250,1000 M 1300,0 L 1300,1000 M 1350,0 L 1350,1000 M 1400,0 L 1400,1000 M 1450,0 L 1450,1000 M 1500,0 L 1500,1000 M 1550,0 L 1550,1000" stroke="#38bdf8" stroke-width="1" />
  </g>

  <!-- ================= HEADER SECTION ================= -->
  <g transform="translate(60, 45)">
    <!-- Icon/Logo -->
    <rect x="0" y="5" width="48" height="48" rx="12" fill="url(#accent-blue)" filter="url(#glow-cyan)" opacity="0.85" />
    <path d="M 16,34 L 24,18 L 32,34 Z" fill="none" stroke="#ffffff" stroke-width="3" stroke-linecap="round" stroke-linejoin="round" />
    <circle cx="24" cy="25" r="3" fill="#ffffff" />
    
    <!-- Title -->
    <text x="65" y="28" font-size="32" class="vidi-brand" fill="#ffffff">VidiFlow.ai</text>
    <text x="65" y="47" class="subtitle">AI Agent Orchestration</text>

    <!-- Status Pills -->
    <g transform="translate(1050, 10)">
      <!-- System Active -->
      <rect x="0" y="0" width="130" height="26" rx="13" fill="#0f172a" stroke="#10b981" stroke-width="1.5" />
      <circle cx="15" cy="13" r="4" fill="#10b981" />
      <text x="28" y="17" class="pill-text" fill="#10b981">SYSTEM: ACTIVE</text>

      <!-- GPU Acceleration -->
      <rect x="140" y="0" width="180" height="26" rx="13" fill="#0f172a" stroke="#ea580c" stroke-width="1.5" />
      <circle cx="155" cy="13" r="4" fill="#ea580c" />
      <text x="168" y="17" class="pill-text" fill="#ea580c">GPU: DUAL CLUSTER</text>
    </g>
  </g>

  <!-- Group Borders & Labels -->
  
  <!-- LEFT COLUMN: LOCAL STACK (EDGE) -->
  <g transform="translate(60, 140)">
    <rect width="420" height="780" rx="20" fill="#05070c" stroke="#1e293b" stroke-width="2" />
    <rect width="180" height="30" rx="8" x="20" y="-15" fill="#0284c7" />
    <text x="35" y="5" font-size="12" font-family="'Kumbh Sans', sans-serif" font-weight="900" fill="#ffffff" letter-spacing="0.05em">LOCAL STACK (EDGE)</text>
  </g>

  <!-- MIDDLE COLUMN: ORCHESTRATION & AGENT FORCE -->
  <g transform="translate(540, 140)">
    <rect width="520" height="780" rx="20" fill="#05070c" stroke="#1e293b" stroke-width="2" />
    <rect width="260" height="30" rx="8" x="20" y="-15" fill="#7c3aed" />
    <text x="35" y="5" font-size="12" font-family="'Kumbh Sans', sans-serif" font-weight="900" fill="#ffffff" letter-spacing="0.05em">ORCHESTRATION &amp; AGENT FORCE</text>
  </g>

  <!-- RIGHT COLUMN: CLOUD DATA HUB (CORE) -->
  <g transform="translate(1120, 140)">
    <rect width="420" height="780" rx="20" fill="#05070c" stroke="#1e293b" stroke-width="2" />
    <rect width="200" height="30" rx="8" x="20" y="-15" fill="#059669" />
    <text x="35" y="5" font-size="12" font-family="'Kumbh Sans', sans-serif" font-weight="900" fill="#ffffff" letter-spacing="0.05em">CLOUD DATA HUB (CORE)</text>
  </g>


  <!-- ================= CONNECTORS (FLOW LINES) ================= -->
  <!-- Line from Local LLM to CrewAI -->
  <path d="M 430,390 L 590,290" fill="none" stroke="#38bdf8" stroke-width="2.5" class="flow-line" />
  
  <!-- Line from Local GPU to Local LLM -->
  <path d="M 270,245 L 270,345" fill="none" stroke="#ea580c" stroke-width="2.5" />

  <!-- Line from CrewAI to LangGraph -->
  <path d="M 800,410 L 800,490" fill="none" stroke="#a78bfa" stroke-width="3" stroke-dasharray="6,6" />
  
  <!-- Bidirectional Line between AppFlowy and Directus (Cloud Sync) -->
  <path d="M 270,820 L 270,850 L 1330,850 L 1330,625" fill="none" stroke="#059669" stroke-width="2.5" class="flow-line" />
  <text x="800" y="842" fill="#10b981" font-size="12" font-family="Inter" font-weight="700" text-anchor="middle">BI-DIRECTIONAL CONFIG SYNC (Directus REST API)</text>

  <!-- Edge-to-Core Feedback loops -->
  <!-- LangGraph to Vidi Ai -->
  <path d="M 970,555 L 1170,210" fill="none" stroke="#34d399" stroke-width="2.5" class="flow-line" />
  <text x="1070" y="380" fill="#34d399" font-size="12" font-family="Inter" font-weight="700" text-anchor="middle" transform="rotate(-30 1070 380)">Direct Stream</text>

  <!-- LangGraph to Neo4j -->
  <path d="M 970,690 L 1170,310" fill="none" stroke="#c084fc" stroke-width="2.5" class="flow-line" />


  <!-- ================= LEFT COLUMN STACK NODES ================= -->

  <!-- NODE 1: Local GPU Engine (Orange) -->
  <g class="interactive-node" transform="translate(110, 165)">
    <rect width="320" height="80" rx="12" fill="url(#grad-blue)" stroke="#ea580c" stroke-width="2" />
    <rect width="6" height="80" rx="3" x="0" y="0" fill="url(#accent-orange)" />
    <path d="M 25,25 H 45 V 55 H 25 Z M 30,25 V 20 M 40,25 V 20 M 30,55 V 60 M 40,55 V 60" stroke="#ea580c" stroke-width="2" fill="none" />
    <text x="65" y="32" class="node-title">Local GPU Acceleration</text>
    <text x="65" y="50" class="node-text">NVIDIA RTX 4090 · CUDA v12.4</text>
    <text x="65" y="68" class="node-code">TensorRT Engine · 24GB VRAM</text>
  </g>

  <!-- NODE 1b: Cloud GPU Stack (Yellow) -->
  <g class="interactive-node-yellow" transform="translate(110, 255)">
    <rect width="320" height="80" rx="12" fill="url(#grad-blue)" stroke="#fbbf24" stroke-width="2" />
    <rect width="6" height="80" rx="3" x="0" y="0" fill="url(#accent-yellow)" />
    <path d="M 25,25 H 45 V 55 H 25 Z M 30,25 V 20 M 40,25 V 20 M 30,55 V 60 M 40,55 V 60" stroke="#fbbf24" stroke-width="2" fill="none" />
    <text x="65" y="32" class="node-title">Cloud GPU Acceleration</text>
    <text x="65" y="50" class="node-text">Dual NVIDIA RTX 6000 Ada</text>
    <text x="65" y="68" class="node-code">128GB Memory · Full Stack to Go</text>
  </g>

  <!-- NODE 2: Local Inference -->
  <g class="interactive-node" transform="translate(110, 345)">
    <rect width="320" height="95" rx="12" fill="url(#grad-blue)" stroke="#38bdf8" stroke-width="2" filter="url(#glow-cyan)" />
    <rect width="6" height="95" rx="3" x="0" y="0" fill="url(#accent-blue)" />
    <circle cx="35" cy="47" r="12" stroke="#38bdf8" stroke-width="2" fill="none" />
    <circle cx="35" cy="47" r="6" fill="#38bdf8" />
    <text x="65" y="32" class="node-title">LM Studio Node</text>
    <text x="65" y="50" class="node-text">Local AI Inference Server</text>
    <text x="65" y="68" class="node-text">Model: Qwen 2.5 14B Instruct</text>
    <text x="65" y="85" class="node-code">API Endpoint: http://localhost:1234</text>
  </g>

  <!-- NODE 3: Local Vector Sync -->
  <g class="interactive-node" transform="translate(110, 450)">
    <rect width="320" height="85" rx="12" fill="url(#grad-blue)" stroke="#38bdf8" stroke-width="2" />
    <rect width="6" height="85" rx="3" x="0" y="0" fill="url(#accent-blue)" />
    <path d="M 20,25 L 35,55 L 50,25 Z" stroke="#38bdf8" stroke-width="2" fill="none" />
    <text x="65" y="32" class="node-title">Local Vector Storage</text>
    <text x="65" y="50" class="node-text">Qdrant Local Sync</text>
    <text x="65" y="68" class="node-text">Size: 24.8K Embedded Nodes</text>
    <text x="65" y="83" class="node-code">Status: SYNCED (99.8% match)</text>
  </g>

  <!-- NODE 4: Local Database -->
  <g class="interactive-node" transform="translate(110, 545)">
    <rect width="320" height="85" rx="12" fill="url(#grad-blue)" stroke="#38bdf8" stroke-width="2" />
    <rect width="6" height="85" rx="3" x="0" y="0" fill="url(#accent-blue)" />
    <path d="M 20,30 Q 35,20 50,30 V 55 Q 35,65 20,55 Z" stroke="#38bdf8" stroke-width="2" fill="none" />
    <text x="65" y="32" class="node-title">AppFlowy Core DB</text>
    <text x="65" y="50" class="node-text">Local SQLite Engine (Encrypted)</text>
    <text x="65" y="68" class="node-text">VidiFlow Offline Storage</text>
    <text x="65" y="83" class="node-code">Tables: 48 Document Matrices</text>
  </g>

  <!-- NODE 5: Edge Client Hub -->
  <g class="interactive-node" transform="translate(110, 640)">
    <rect width="320" height="120" rx="12" fill="url(#grad-blue)" stroke="#38bdf8" stroke-width="2" />
    <rect width="6" height="120" rx="3" x="0" y="0" fill="url(#accent-blue)" />
    <path d="M 20,25 H 50 V 50 H 20 Z" stroke="#38bdf8" stroke-width="2" fill="none" />
    <text x="65" y="32" class="node-title">VidiFlow Edge Controller</text>
    <text x="65" y="50" class="node-text">Client Application Runtime</text>
    <text x="65" y="68" class="node-text">Platforms: macOS / Windows / iOS</text>
    <text x="65" y="86" class="node-text">Desktop UI: Rust + Flutter Engine</text>
    <text x="65" y="103" class="node-code">Device Status: MASTER CONTROLLER</text>
  </g>


  <!-- ================= MIDDLE COLUMN NODES (ORCHESTRATOR) ================= -->

  <!-- NODE 6: CrewAI Orchestrator -->
  <g class="interactive-node-purple" transform="translate(590, 165)">
    <rect width="420" height="245" rx="15" fill="url(#grad-blue)" stroke="#a78bfa" stroke-width="2.5" filter="url(#glow-purple)" />
    <rect width="6" height="245" rx="3" x="0" y="0" fill="url(#accent-purple)" />
    
    <rect width="130" height="22" rx="11" x="20" y="15" fill="#7c3aed" opacity="0.35" />
    <text x="35" y="30" font-family="Inter" font-weight="700" font-size="11" fill="#c084fc">CREWAI AGENTS</text>

    <text x="20" y="65" font-family="Kumbh Sans" font-weight="800" font-size="20" fill="#ffffff">Multi-Agent Team Execution</text>
    <text x="20" y="85" class="node-text">Coordinates autonomous tasks sequentially or in parallel.</text>
    
    <g transform="translate(20, 105)">
      <!-- Agent 1 -->
      <rect width="380" height="36" rx="8" fill="#110d2d" stroke="#7c3aed" stroke-opacity="0.6" stroke-width="1.5" />
      <circle cx="20" cy="18" r="4" fill="#a78bfa" />
      <text x="35" y="22" font-family="Inter" font-weight="700" font-size="13" fill="#ffffff">Agent 1: Content Analyst</text>
      <text x="230" y="22" class="node-text" font-size="12">Extracts topics &amp; entities</text>
      
      <!-- Agent 2 -->
      <rect width="380" height="36" rx="8" y="44" fill="#110d2d" stroke="#7c3aed" stroke-opacity="0.6" stroke-width="1.5" />
      <circle cx="20" cy="62" r="4" fill="#a78bfa" />
      <text x="35" y="66" font-family="Inter" font-weight="700" font-size="13" fill="#ffffff">Agent 2: Vector Specialist</text>
      <text x="230" y="66" class="node-text" font-size="12">Optimizes embeddings</text>
      
      <!-- Agent 3 -->
      <rect width="380" height="36" rx="8" y="88" fill="#110d2d" stroke="#7c3aed" stroke-opacity="0.6" stroke-width="1.5" />
      <circle cx="20" cy="106" r="4" fill="#a78bfa" />
      <text x="35" y="110" font-family="Inter" font-weight="700" font-size="13" fill="#ffffff">Agent 3: Graph Curator</text>
      <text x="230" y="110" class="node-text" font-size="12">Maps Neo4j relationships</text>
    </g>
  </g>

  <!-- NODE 7: LangGraph State Workflow -->
  <g class="interactive-node-purple" transform="translate(590, 495)">
    <rect width="420" height="385" rx="15" fill="url(#grad-blue)" stroke="#a78bfa" stroke-width="2.5" />
    <rect width="6" height="385" rx="3" x="0" y="0" fill="url(#accent-purple)" />
    
    <rect width="160" height="22" rx="11" x="20" y="15" fill="#7c3aed" opacity="0.35" />
    <text x="35" y="30" font-family="Inter" font-weight="700" font-size="11" fill="#c084fc">LANGGRAPH WORKFLOW</text>

    <text x="20" y="65" font-family="Kumbh Sans" font-weight="800" font-size="20" fill="#ffffff">GraphRAG Entity Pipeline</text>
    <text x="20" y="85" class="node-text">Compiles stateful multi-agent feedback loops.</text>

    <g transform="translate(20, 105)">
      <rect width="380" height="260" rx="10" fill="#070512" stroke="#4c278c" stroke-width="2" />
      
      <!-- Node A -->
      <rect width="150" height="40" rx="8" x="20" y="20" fill="#15112e" stroke="#7c3aed" stroke-width="2" />
      <text x="95" y="44" font-family="Inter" font-weight="700" font-size="12" fill="#ffffff" text-anchor="middle">1. Entity Extraction</text>
      
      <!-- Node B -->
      <rect width="150" height="40" rx="8" x="210" y="20" fill="#15112e" stroke="#7c3aed" stroke-width="2" />
      <text x="285" y="44" font-family="Inter" font-weight="700" font-size="12" fill="#ffffff" text-anchor="middle">2. Relation Mapping</text>

      <!-- Node C -->
      <rect width="150" height="40" rx="8" x="20" y="110" fill="#15112e" stroke="#7c3aed" stroke-width="2" />
      <text x="95" y="134" font-family="Inter" font-weight="700" font-size="12" fill="#ffffff" text-anchor="middle">3. Embeddings Gen</text>

      <!-- Node D -->
      <rect width="150" height="40" rx="8" x="210" y="110" fill="#15112e" stroke="#7c3aed" stroke-width="2" />
      <text x="285" y="134" font-family="Inter" font-weight="700" font-size="12" fill="#ffffff" text-anchor="middle">4. Priority Scoring</text>
      
      <!-- Node E -->
      <rect width="340" height="45" rx="8" x="20" y="195" fill="#022c22" stroke="#10b981" stroke-width="2" />
      <text x="190" y="222" font-family="Inter" font-weight="800" font-size="12" fill="#10b981" text-anchor="middle">EDGE FEEDBACK LOOP (JVM Latency &lt;50ms)</text>
      <text x="190" y="235" font-family="Inter" font-weight="500" font-size="10" fill="#cbd5e1" text-anchor="middle">Streams micro-updates straight to Vidi Ai &amp; Neo4j</text>

      <path d="M 170,40 L 210,40" fill="none" stroke="#7c3aed" stroke-width="2" />
      <path d="M 285,60 L 285,110" fill="none" stroke="#7c3aed" stroke-width="2" />
      <path d="M 210,130 L 170,130" fill="none" stroke="#7c3aed" stroke-width="2" />
      <path d="M 95,150 L 95,195" fill="none" stroke="#7c3aed" stroke-width="2" />
    </g>
  </g>


  <!-- ================= RIGHT COLUMN NODES (CLOUD DATA HUB) ================= -->

  <!-- NODE 8: Vidi Ai (Kumbh Sans) -->
  <g class="interactive-node-emerald" transform="translate(1170, 165)">
    <rect width="320" height="90" rx="12" fill="url(#grad-blue)" stroke="#10b981" stroke-width="2.5" filter="url(#glow-emerald)" />
    <rect width="6" height="90" rx="3" x="0" y="0" fill="url(#accent-emerald)" />
    <polygon points="35,22 50,47 20,47" stroke="#10b981" stroke-width="2" fill="none" />
    <circle cx="35" cy="40" r="4" fill="#10b981" />
    <text x="65" y="32" class="vidi-brand" font-size="18" fill="#ffffff">Vidi Ai</text>
    <text x="65" y="50" class="node-text">Primary Vector &amp; RAG Search</text>
    <text x="65" y="68" class="node-code">Latency: 12ms · Port 8089</text>
  </g>

  <!-- NODE 9: Neo4j Graph -->
  <g class="interactive-node-emerald" transform="translate(1170, 265)">
    <rect width="320" height="85" rx="12" fill="url(#grad-blue)" stroke="#10b981" stroke-width="2" />
    <rect width="6" height="85" rx="3" x="0" y="0" fill="url(#accent-emerald)" />
    <circle cx="28" cy="35" r="5" stroke="#10b981" stroke-width="2" fill="none" />
    <circle cx="48" cy="20" r="5" stroke="#10b981" stroke-width="2" fill="none" />
    <line x1="33" y1="31" x2="43" y2="24" stroke="#10b981" stroke-width="2" />
    <text x="65" y="32" class="node-title">Neo4j Enterprise</text>
    <text x="65" y="50" class="node-text">Knowledge Graph Database</text>
    <text x="65" y="68" class="node-code">Size: 2.1M Relations, 540K Nodes</text>
  </g>

  <!-- NODE 10: PostgreSQL -->
  <g class="interactive-node-emerald" transform="translate(1170, 360)">
    <rect width="320" height="85" rx="12" fill="url(#grad-blue)" stroke="#10b981" stroke-width="2" />
    <rect width="6" height="85" rx="3" x="0" y="0" fill="url(#accent-emerald)" />
    <path d="M 22,30 H 48 V 60 H 22 Z" stroke="#10b981" stroke-width="1.5" fill="none" />
    <text x="65" y="32" class="node-title">PostgreSQL + PostGIS</text>
    <text x="65" y="50" class="node-text">Primary Relational Database</text>
    <text x="65" y="68" class="node-code">PostgreSQL 16 · Port: 5432</text>
  </g>

  <!-- NODE 11: Redis Cache -->
  <g class="interactive-node-emerald" transform="translate(1170, 455)">
    <rect width="320" height="75" rx="12" fill="url(#grad-blue)" stroke="#10b981" stroke-width="2" />
    <rect width="6" height="75" rx="3" x="0" y="0" fill="url(#accent-emerald)" />
    <path d="M 20,30 L 35,20 L 50,30 L 35,40 Z" stroke="#10b981" stroke-width="1.5" fill="none" />
    <text x="65" y="32" class="node-title">Redis Distributed Cache</text>
    <text x="65" y="50" class="node-text">Active Memory Caching Layer</text>
    <text x="65" y="64" class="node-code">Latency: &lt;1.5ms · Port: 6379</text>
  </g>

  <!-- NODE 12: Directus VidiCRM (Kumbh Sans VidiCRM) -->
  <g class="interactive-node-emerald" transform="translate(1170, 540)">
    <rect width="320" height="85" rx="12" fill="url(#grad-blue)" stroke="#10b981" stroke-width="2" />
    <rect width="6" height="85" rx="3" x="0" y="0" fill="url(#accent-emerald)" />
    <rect x="22" y="25" width="26" height="36" rx="4" stroke="#10b981" stroke-width="1.5" fill="none" />
    <text x="65" y="32" class="vidi-brand" font-size="18" fill="#ffffff">VidiCRM</text>
    <text x="65" y="50" class="node-text">Directus Headless CMS config</text>
    <text x="65" y="68" class="node-code">GraphQL &amp; REST · Port: 8055</text>
  </g>

  <!-- NODE 13: SmartGen Content Creation (SmartChannel CX, VidiMail, VidiTwin - Kumbh Sans) -->
  <g class="interactive-node-emerald" transform="translate(1170, 635)">
    <rect width="320" height="125" rx="12" fill="url(#grad-blue)" stroke="#10b981" stroke-width="2.5" />
    <rect width="6" height="125" rx="3" x="0" y="0" fill="url(#accent-emerald)" />
    <path d="M 22,25 Q 35,15 48,25 V 50 H 22 Z" stroke="#10b981" stroke-width="1.5" fill="none" />
    <text x="65" y="28" class="node-title">SmartGen Content</text>
    <text x="65" y="47" class="vidi-brand" font-size="13.5" fill="#38bdf8">SmartChannel CX</text>
    <text x="65" y="65" class="vidi-brand" font-size="13.5" fill="#34d399">VidiMail · <tspan class="vidi-brand" fill="#c084fc">VidiTwin</tspan></text>
    <text x="65" y="83" class="node-text">Unified output pipelines</text>
    <text x="65" y="99" class="node-code">Status: COMPILING GENERATION</text>
  </g>

  <!-- Legend / Decorative Status Bar -->
  <g transform="translate(60, 940)">
    <rect width="1480" height="30" rx="8" fill="#05070c" stroke="#1e293b" stroke-width="1.5" />
    <circle cx="20" cy="15" r="4" fill="#38bdf8" />
    <text x="32" y="19" font-family="Inter" font-weight="600" font-size="12" fill="#cbd5e1">Local Edge Connection</text>
    
    <circle cx="200" cy="15" r="4" fill="#a78bfa" />
    <text x="212" y="19" font-family="Inter" font-weight="600" font-size="12" fill="#cbd5e1">Multi-Agent Execution</text>
    
    <circle cx="380" cy="15" r="4" fill="#10b981" />
    <text x="392" y="19" font-family="Inter" font-weight="600" font-size="12" fill="#cbd5e1">Enterprise Core DB</text>

    <!-- Version & Copy -->
    <text x="1460" y="19" font-family="Inter" font-size="12" fill="#64748b" text-anchor="end">VidiFlow Architecture Blueprint v4.2.0 · 2026 Release · Infinitely Scalable Vector</text>
  </g>

</svg>
